<?xml version="1.0" standalone="no"?>
<!DOCTYPE svg PUBLIC "-//W3C//DTD SVG 20010904//EN"
 "http://www.w3.org/TR/2001/REC-SVG-20010904/DTD/svg10.dtd">
<svg version="1.0" xmlns="http://www.w3.org/2000/svg"
 width="279.000000pt" height="279.000000pt" viewBox="0 0 279.000000 279.000000"
 preserveAspectRatio="xMidYMid meet">
<metadata>
Created by potrace 1.11, written by Peter Selinger 2001-2013
</metadata>
<g transform="translate(0.000000,279.000000) scale(0.100000,-0.100000)"
fill="#000000" stroke="none">
<path d="M333 1558 c1 -337 5 -622 9 -633 25 -82 86 -170 154 -225 36 -29 127
-67 174 -74 9 -1 21 -5 28 -10 6 -4 12 -3 12 1 0 5 27 6 60 3 33 -3 60 -3 60
1 0 4 14 4 30 -1 17 -5 30 -5 30 0 0 5 6 7 14 4 20 -8 106 -10 106 -3 0 4 18
3 40 -1 22 -4 40 -4 40 0 0 4 18 4 40 0 22 -4 40 -4 40 0 0 4 18 4 40 0 22 -4
40 -4 40 -1 0 3 31 4 70 1 39 -3 70 -2 70 2 0 3 14 3 30 -2 17 -5 30 -5 30 0
0 5 6 7 14 4 20 -8 246 -10 246 -2 0 4 14 3 30 -2 17 -5 30 -5 30 0 0 5 6 7
14 4 20 -8 186 -10 186 -3 0 4 18 3 40 -1 22 -4 40 -4 40 0 0 4 8 7 17 6 14
-1 17 7 16 34 0 19 -1 37 -2 40 -1 3 -313 5 -693 4 -427 0 -698 3 -706 9 -7 6
-15 7 -19 4 -3 -3 -18 0 -33 8 -15 8 -30 11 -34 8 -3 -4 -6 -1 -6 5 0 7 -6 12
-12 12 -18 1 -70 47 -102 91 -31 42 -68 147 -54 155 5 3 4 12 -3 20 -9 11 -8
14 2 14 9 0 10 3 4 8 -15 11 -17 32 -4 48 6 8 7 14 2 14 -5 0 -9 9 -10 20 -1
11 2 18 6 16 4 -3 8 1 8 9 0 8 -3 15 -6 15 -4 0 -6 22 -6 49 0 27 4 47 9 44 5
-4 6 0 1 7 -11 17 -14 80 -3 74 4 -3 5 5 0 18 -9 29 -9 59 1 76 5 6 4 12 0 12
-5 0 -8 22 -8 49 0 27 2 48 6 46 3 -2 6 2 6 10 0 8 -3 15 -6 15 -3 0 -6 40 -6
89 0 51 4 87 9 83 5 -3 6 1 1 8 -10 16 -14 81 -5 75 4 -2 7 2 7 10 0 8 -3 15
-6 15 -4 0 -6 22 -6 49 0 27 2 48 6 46 3 -2 6 2 6 10 0 8 -3 15 -7 15 -4 0 -7
7 -7 15 0 8 5 15 11 15 7 0 8 3 1 8 -6 4 -10 26 -10 48 l0 42 160 0 c88 0 196
1 240 1 44 1 98 1 120 0 22 0 45 0 50 1 6 0 44 1 85 0 187 -1 506 -1 515 1 6
1 15 0 20 -1 6 -1 96 -1 200 0 227 2 203 3 333 -12 6 -1 12 -5 12 -9 0 -4 13
-10 29 -14 34 -7 151 -118 151 -142 0 -6 7 -23 14 -39 8 -15 13 -31 10 -36 -3
-4 -2 -14 3 -20 4 -7 8 -195 8 -418 0 -316 3 -404 13 -402 6 1 12 -3 12 -9 0
-6 5 -7 13 -2 6 4 20 6 29 5 15 -3 17 30 16 427 -1 237 -4 431 -8 431 -4 0 -7
7 -8 15 -1 8 -3 22 -4 30 -1 8 -5 15 -9 15 -5 0 -6 7 -3 15 4 8 1 15 -4 15 -6
0 -14 9 -17 21 -16 51 -103 133 -179 170 -32 16 -62 26 -67 24 -4 -3 -10 -1
-14 5 -4 6 -319 10 -906 10 l-899 0 3 -612z"/>
<path d="M616 1910 c-3 -8 -5 -242 -4 -520 l3 -505 570 1 c548 1 573 2 615 21
58 26 153 119 142 140 -2 3 1 9 7 13 6 3 13 16 16 28 2 12 6 26 9 31 12 18 17
84 11 123 -7 37 -9 39 -34 33 -14 -4 -62 -8 -106 -10 -44 -2 -91 -3 -105 -4
-18 -1 -21 -4 -11 -10 16 -10 18 -94 2 -99 -6 -2 -11 -9 -11 -15 0 -14 -523
-17 -537 -4 -4 5 1 8 12 7 58 -6 61 -4 60 58 0 31 -4 62 -8 69 -6 9 69 12 326
13 183 0 343 2 355 5 48 9 109 44 142 82 31 35 66 89 71 111 1 4 7 21 14 37
18 46 8 187 -14 205 -3 3 -15 23 -26 44 -29 57 -91 113 -144 130 -58 19 -98
26 -105 18 -9 -9 -55 -9 -49 1 5 8 -40 2 -57 -8 -5 -3 -10 -2 -10 2 0 13 -134
11 -142 -2 -5 -7 -8 -6 -8 1 0 6 -15 9 -32 8 -18 -1 -33 -3 -33 -4 0 -1 -10
-3 -22 -4 -12 -1 -20 1 -17 6 3 5 -7 6 -23 3 -15 -4 -32 -6 -38 -5 -63 6 -175
3 -175 -5 0 -6 -3 -6 -8 1 -9 13 -52 13 -52 -1 0 -7 -3 -7 -8 0 -8 12 -142 15
-142 3 0 -5 -9 -4 -20 2 -17 9 -20 8 -20 -7 -1 -17 -2 -16 -15 1 -8 11 -15 14
-15 8 0 -9 -5 -10 -18 -3 -10 5 -24 6 -32 1 -8 -5 -22 -4 -32 1 -12 6 -25 6
-36 0 -13 -7 -22 -7 -29 0 -8 8 -13 8 -17 0 -5 -7 -15 -7 -31 -1 -18 7 -25 6
-25 -3 0 -7 -3 -8 -8 -2 -8 12 -32 13 -49 2 -7 -5 -13 -4 -13 2 0 10 -31 8
-49 -3 -5 -4 -11 0 -14 6 -3 10 -6 9 -11 -2z m399 -40 c-3 -5 -12 -10 -18 -10
-7 0 -6 4 3 10 19 12 23 12 15 0z m-2 -40 c3 -11 1 -18 -4 -14 -5 3 -9 12 -9
20 0 20 7 17 13 -6z m-3 -46 c0 -8 -4 -14 -8 -14 -4 0 -8 9 -8 19 0 11 4 17 8
15 4 -3 8 -12 8 -20z m-2 -41 c0 -10 2 -27 6 -38 5 -13 2 -12 -7 4 -8 14 -13
31 -10 38 7 18 12 16 11 -4z m-6 -70 c0 -4 4 -18 9 -30 5 -13 5 -23 1 -23 -11
0 -9 -54 3 -62 6 -5 5 -8 -4 -8 -11 0 -11 -3 -1 -15 10 -12 0 -14 -73 -14
l-85 0 1 75 c0 46 4 74 11 75 6 0 39 0 74 0 45 0 61 3 56 12 -4 7 -4 9 0 5 4
-3 8 -10 8 -15z m568 -6 c0 -5 5 -5 10 -2 6 4 36 6 68 6 57 -1 96 -1 184 2 51
2 65 -5 86 -41 10 -18 10 -22 0 -22 -10 0 -10 -2 0 -9 17 -10 15 -18 -10 -53
-18 -26 -22 -27 -106 -26 -48 1 -93 -1 -99 -5 -6 -4 -14 -1 -16 5 -4 10 -8 9
-16 -2 -8 -12 -11 -12 -11 -1 0 10 -3 11 -14 2 -11 -9 -15 -9 -19 1 -4 10 -8
10 -16 -2 -8 -12 -11 -12 -11 -1 0 10 -3 11 -14 2 -11 -9 -15 -9 -19 1 -4 10
-8 10 -16 -2 -8 -12 -11 -12 -11 -1 0 10 -3 11 -14 2 -11 -9 -15 -9 -19 1 -4
10 -8 10 -16 -2 -8 -12 -11 -12 -11 -1 0 10 -3 11 -14 2 -11 -9 -15 -9 -19 1
-4 10 -8 10 -16 -2 -8 -12 -11 -12 -11 -1 0 10 -3 11 -14 2 -11 -9 -15 -9 -20
1 -5 10 -7 10 -12 0 -3 -6 -11 -9 -17 -5 -13 8 -68 8 -88 1 -12 -5 -15 8 -14
70 l0 77 29 5 c48 8 286 6 286 -3z m-516 -396 c-6 -6 -11 -7 -36 -10 -13 -1
-17 -106 -4 -118 3 -3 39 -6 81 -6 41 0 75 -2 75 -6 0 -3 -71 -6 -158 -6
l-157 0 0 38 c0 20 -4 37 -8 37 -5 0 -5 6 0 12 4 7 6 26 4 41 l-3 28 106 -2
c58 -2 103 -5 100 -8z m46 3 c0 -8 -19 -13 -24 -6 -3 5 1 9 9 9 8 0 15 -2 15
-3z m30 2 c0 -3 -4 -8 -10 -11 -5 -3 -10 -1 -10 4 0 6 5 11 10 11 6 0 10 -2
10 -4z m50 -6 c0 -5 -2 -10 -4 -10 -3 0 -8 5 -11 10 -3 6 -1 10 4 10 6 0 11
-4 11 -10z m44 -2 c-3 -4 -11 -5 -19 -1 -21 7 -19 12 4 10 11 0 18 -5 15 -9z"/>
</g>
</svg>
